<!DOCTYPE svg PUBLIC "-//W3C//DTD SVG 1.1//EN" "http://www.w3.org/Graphics/SVG/1.1/DTD/svg11.dtd">
<!-- Uploaded to: SVG Repo, www.svgrepo.com, Transformed by: SVG Repo Mixer Tools -->
<svg fill="#828282" version="1.1" id="Layer_1" xmlns="http://www.w3.org/2000/svg" xmlns:xlink="http://www.w3.org/1999/xlink" width="800px" height="800px" viewBox="0 0 512 512" enable-background="new 0 0 512 512" xml:space="preserve" stroke="#828282">
<g id="SVGRepo_bgCarrier" stroke-width="0"/>
<g id="SVGRepo_tracerCarrier" stroke-linecap="round" stroke-linejoin="round"/>
<g id="SVGRepo_iconCarrier"> <g> <path d="M393.807,7.964c-54.683,0-99.172,44.485-99.172,99.167c0,54.684,44.489,99.169,99.172,99.169 c54.682,0,99.167-44.485,99.167-99.169C492.974,52.45,448.488,7.964,393.807,7.964z M393.807,172.18 c-35.856,0-65.047-29.183-65.047-65.048c0-35.863,29.19-65.046,65.047-65.046c35.889,0,65.045,29.183,65.045,65.046 C458.852,142.998,429.695,172.18,393.807,172.18z"/> <path d="M431.227,113.473l-23.924-9.972c-0.804-3.034-2.534-5.567-4.932-7.441V58.673c0-4.715-3.833-8.531-8.532-8.531 c-4.731,0-8.531,3.816-8.531,8.531v37.38c-3.363,2.591-5.697,6.491-5.697,11.079c0,7.849,6.333,14.212,14.196,14.212 c2.598,0,4.899-0.875,6.963-2.074l23.893,9.946c1.067,0.45,2.198,0.659,3.299,0.659c3.334,0,6.498-1.974,7.863-5.25 C437.624,120.279,435.592,115.281,431.227,113.473z"/> <path d="M183.372,319.741c59.614,0,105.867-66.496,105.867-123.695c0-58.382-47.519-105.882-105.867-105.882 c-58.383,0-105.87,47.5-105.87,105.882C77.502,253.246,123.723,319.741,183.372,319.741z M183.372,128.101 c37.453,0,67.909,30.475,67.909,67.946c0,38.596-31.324,85.757-67.909,85.757c-36.588,0-67.944-47.162-67.944-85.757 C115.428,158.576,145.884,128.101,183.372,128.101z"/> <path d="M286.571,269.939c0.135,1.733,0.333,3.449,0.333,5.208c0,31.822-46.785,103.69-77.44,147.441l-12.595-61.696l14.929-14.938 c0.718-0.718,0.718-1.881,0.001-2.599l-7.252-7.259c-2.869-2.872-6.763-4.486-10.822-4.486h-20.751 c-4.053,0-7.94,1.608-10.808,4.472l-5.986,5.978c-0.689,0.688-1.076,1.622-1.077,2.596c-0.001,0.974,0.386,1.908,1.074,2.597 l13.631,13.64l-12.594,61.696c-30.656-43.761-77.405-115.62-77.405-147.441c0-1.758,0.199-3.475,0.297-5.208 C43.65,290.79,19.026,329.986,19.026,374.995v80.807c0,26.643,21.595,48.233,48.252,48.233h232.158 c26.624,0,48.214-21.591,48.214-48.233v-80.807C347.65,329.995,323.059,290.799,286.571,269.939z"/> </g> </g>
</svg>